<svg width="47" height="51" viewBox="0 0 47 51" fill="none" xmlns="http://www.w3.org/2000/svg">
<path d="M34.4823 3.05029C34.4823 2.42869 34.7296 1.83255 35.1697 1.39301C35.6099 0.953473 36.2069 0.706543 36.8294 0.706543H44.6529C45.2754 0.706543 45.8724 0.953473 46.3126 1.39301C46.7527 1.83255 47 2.42869 47 3.05029V10.8628C47 11.4844 46.7527 12.0805 46.3126 12.5201C45.8724 12.9596 45.2754 13.2065 44.6529 13.2065C44.0304 13.2065 43.4335 12.9596 42.9933 12.5201C42.5531 12.0805 42.3059 11.4844 42.3059 10.8628V8.70654L28.3173 22.6753C27.8772 23.1142 27.2807 23.3607 26.6587 23.3607C26.0367 23.3607 25.4402 23.1142 25.0001 22.6753L17.2704 14.9565L4.06422 28.144C3.84934 28.3743 3.59023 28.559 3.30232 28.6871C3.01441 28.8152 2.70362 28.8841 2.38848 28.8896C2.07334 28.8952 1.7603 28.8373 1.46805 28.7194C1.1758 28.6015 0.910316 28.4261 0.687442 28.2035C0.464568 27.981 0.288867 27.7159 0.170822 27.424C0.0527765 27.1322 -0.00519505 26.8196 0.000365271 26.5049C0.00592559 26.1902 0.0749045 25.8799 0.203186 25.5924C0.331467 25.3049 0.516424 25.0461 0.747021 24.8315L15.6118 9.98779C16.0519 9.54888 16.6484 9.30235 17.2704 9.30235C17.8924 9.30235 18.4889 9.54888 18.929 9.98779L26.6587 17.7065L38.9887 5.39404H36.8294C36.2069 5.39404 35.6099 5.14711 35.1697 4.70757C34.7296 4.26804 34.4823 3.67189 34.4823 3.05029ZM2.40562 38.2065C3.0281 38.2065 3.62509 38.4535 4.06525 38.893C4.50541 39.3326 4.75269 39.9287 4.75269 40.5503V48.3628C4.75269 48.9844 4.50541 49.5805 4.06525 50.0201C3.62509 50.4596 3.0281 50.7065 2.40562 50.7065C1.78314 50.7065 1.18615 50.4596 0.745988 50.0201C0.305826 49.5805 0.0585465 48.9844 0.0585465 48.3628V40.5503C0.0585465 39.9287 0.305826 39.3326 0.745988 38.893C1.18615 38.4535 1.78314 38.2065 2.40562 38.2065ZM17.2704 31.1753C17.2704 30.5537 17.0231 29.9576 16.583 29.518C16.1428 29.0785 15.5458 28.8315 14.9233 28.8315C14.3009 28.8315 13.7039 29.0785 13.2637 29.518C12.8235 29.9576 12.5763 30.5537 12.5763 31.1753V48.3628C12.5763 48.9844 12.8235 49.5805 13.2637 50.0201C13.7039 50.4596 14.3009 50.7065 14.9233 50.7065C15.5458 50.7065 16.1428 50.4596 16.583 50.0201C17.0231 49.5805 17.2704 48.9844 17.2704 48.3628V31.1753ZM27.4411 35.0815C28.0635 35.0815 28.6605 35.3285 29.1007 35.768C29.5409 36.2076 29.7881 36.8037 29.7881 37.4253V48.3628C29.7881 48.9844 29.5409 49.5805 29.1007 50.0201C28.6605 50.4596 28.0635 50.7065 27.4411 50.7065C26.8186 50.7065 26.2216 50.4596 25.7814 50.0201C25.3413 49.5805 25.094 48.9844 25.094 48.3628V37.4253C25.094 36.8037 25.3413 36.2076 25.7814 35.768C26.2216 35.3285 26.8186 35.0815 27.4411 35.0815ZM42.3059 24.9253C42.3059 24.3037 42.0586 23.7076 41.6184 23.268C41.1783 22.8285 40.5813 22.5815 39.9588 22.5815C39.3363 22.5815 38.7393 22.8285 38.2992 23.268C37.859 23.7076 37.6117 24.3037 37.6117 24.9253V48.3628C37.6117 48.9844 37.859 49.5805 38.2992 50.0201C38.7393 50.4596 39.3363 50.7065 39.9588 50.7065C40.5813 50.7065 41.1783 50.4596 41.6184 50.0201C42.0586 49.5805 42.3059 48.9844 42.3059 48.3628V24.9253Z" fill="#7A5503"/>
</svg>
