<svg width="50" height="51" viewBox="0 0 50 51" fill="none" xmlns="http://www.w3.org/2000/svg">
<path d="M42.6923 8.0144H46.2308C46.7 8.0144 47.15 8.20081 47.4818 8.5326C47.8136 8.8644 48 9.31441 48 9.78364V38.0913C48 38.5606 47.8136 39.0106 47.4818 39.3424C47.15 39.6742 46.7 39.8606 46.2308 39.8606H3.76923C3.3 39.8606 2.84999 39.6742 2.5182 39.3424C2.1864 39.0106 2 38.5606 2 38.0913V9.78364C2 9.31441 2.1864 8.8644 2.5182 8.5326C2.84999 8.20081 3.3 8.0144 3.76923 8.0144H7.30769M21.4615 39.8606L17.9231 48.7067M28.5385 39.8606L32.0769 48.7067M14.3846 48.7067H35.6154" stroke="#7A5503" stroke-width="4" stroke-linecap="round" stroke-linejoin="round"/>
<path d="M17.9238 9.78347C17.9238 8.38379 18.3389 7.01554 19.1165 5.85174C19.8941 4.68795 20.9994 3.78088 22.2925 3.24524C23.5857 2.70961 25.0086 2.56946 26.3814 2.84253C27.7542 3.11559 29.0152 3.7896 30.0049 4.77933C30.9946 5.76905 31.6686 7.03004 31.9417 8.40283C32.2148 9.77562 32.0746 11.1986 31.539 12.4917C31.0033 13.7848 30.0963 14.8901 28.9325 15.6677C27.7687 16.4453 26.4004 16.8604 25.0008 16.8604V20.3989" stroke="#7A5503" stroke-width="4" stroke-linecap="round" stroke-linejoin="round"/>
<path d="M24.6382 29.5858C24.7458 29.5139 24.8722 29.4756 25.0015 29.4756C25.1749 29.4756 25.3412 29.5445 25.4638 29.6671C25.5865 29.7897 25.6554 29.956 25.6554 30.1294C25.6554 30.2588 25.617 30.3852 25.5452 30.4927C25.4733 30.6002 25.3712 30.684 25.2517 30.7335C25.1322 30.783 25.0008 30.7959 24.8739 30.7707C24.7471 30.7455 24.6306 30.6832 24.5392 30.5918L23.125 32.006L24.5392 30.5918C24.4477 30.5003 24.3854 30.3838 24.3602 30.257C24.335 30.1302 24.3479 29.9987 24.3974 29.8792C24.4469 29.7597 24.5307 29.6576 24.6382 29.5858Z" stroke="#7A5503" stroke-width="4"/>
</svg>
