<svg width="48" height="49" viewBox="0 0 48 49" fill="none" xmlns="http://www.w3.org/2000/svg">
<path d="M36.4619 25.5308C36.5479 25.9604 36.1182 26.4761 35.6885 26.0464C33.4541 23.6831 31.0479 23.769 28.8564 27.6362C28.6416 28.0229 28.2119 27.98 27.9971 27.6362C27.9111 27.4214 26.6221 24.4565 24.1299 24.4565C22.1533 24.4565 21.0791 26.0894 20.2197 27.6362C20.0049 27.98 19.5752 28.0229 19.3604 27.6362C17.1689 23.769 14.8057 23.6831 12.5713 26.0464C12.0986 26.4761 11.6689 25.9604 11.7549 25.5308C13.001 19.687 17.6846 16.1636 22.7549 15.605V14.8315C22.7549 14.1011 23.3564 13.4565 24.1299 13.4565C24.8604 13.4565 25.5049 14.1011 25.5049 14.8315V15.605C30.5322 16.1636 35.2588 19.687 36.4619 25.5308ZM22.7549 26.4331C23.1416 26.0464 23.5713 25.8745 24.1299 25.8315C24.6455 25.8315 25.0752 26.0894 25.5049 26.4331V32.019C25.5049 33.9097 23.958 35.4565 22.0674 35.4565C20.6064 35.4565 19.2744 34.5542 18.8018 33.1792C18.5439 32.4487 18.9307 31.6753 19.6611 31.4175C20.3486 31.1597 21.165 31.5464 21.3799 32.2769C21.4658 32.4917 21.7236 32.7065 22.0674 32.7065C22.4111 32.7065 22.7549 32.4058 22.7549 32.019V26.4331Z" fill="#7A5503"/>
<rect x="1.5" y="2.20654" width="45" height="45" rx="22.5" stroke="#7A5503" stroke-width="3"/>
</svg>
