<svg width="48" height="49" viewBox="0 0 48 49" fill="none" xmlns="http://www.w3.org/2000/svg">
<path d="M23.3799 35.4565C21.833 35.4565 20.6299 34.2534 20.6299 32.7065H26.0869C26.0869 34.2534 24.8838 35.4565 23.3799 35.4565ZM32.6182 29.0542C32.876 29.312 33.0049 29.6558 33.0049 29.9565C32.9619 30.687 32.4463 31.3315 31.5869 31.3315H15.1299C14.2705 31.3315 13.7549 30.687 13.7549 29.9565C13.7119 29.6558 13.8408 29.312 14.0986 29.0542C14.915 28.1519 16.5049 26.8198 16.5049 22.394C16.5049 19.0854 18.8252 16.4214 22.0049 15.7339V14.8315C22.0049 14.1011 22.6064 13.4565 23.3799 13.4565C24.1104 13.4565 24.7119 14.1011 24.7119 14.8315V15.7339C27.8916 16.4214 30.2119 19.0854 30.2119 22.394C30.2119 26.8198 31.8018 28.1519 32.6182 29.0542Z" fill="#7A5503"/>
<rect x="1.5" y="2.20654" width="45" height="45" rx="22.5" stroke="#7A5503" stroke-width="3"/>
</svg>
