<svg width="48" height="49" viewBox="0 0 48 49" fill="none" xmlns="http://www.w3.org/2000/svg">
<path d="M28.375 24.1128V25.3159C28.375 25.6167 28.1172 25.8315 27.8594 25.8315H20.6406C20.3398 25.8315 20.125 25.6167 20.125 25.3159V24.1128C20.125 23.855 20.3398 23.5972 20.6406 23.5972H27.8594C28.1172 23.5972 28.375 23.855 28.375 24.1128ZM27.8594 27.2065C28.1172 27.2065 28.375 27.4644 28.375 27.7222V28.9253C28.375 29.2261 28.1172 29.4409 27.8594 29.4409H20.6406C20.3398 29.4409 20.125 29.2261 20.125 28.9253V27.7222C20.125 27.4644 20.3398 27.2065 20.6406 27.2065H27.8594ZM32.5 19.1284V33.394C32.5 34.5542 31.5547 35.4565 30.4375 35.4565H18.0625C16.9023 35.4565 16 34.5542 16 33.394V15.519C16 14.4019 16.9023 13.4565 18.0625 13.4565H26.8281C27.3438 13.4565 27.9023 13.7144 28.2891 14.1011L31.8555 17.6675C32.2422 18.0542 32.5 18.6128 32.5 19.1284ZM27 15.6909V18.9565H30.2656L27 15.6909ZM30.4375 33.394V21.019H25.9688C25.3672 21.019 24.9375 20.5894 24.9375 19.9878V15.519H18.0625V33.394H30.4375Z" fill="#7A5503"/>
<rect x="1.5" y="2.20654" width="45" height="45" rx="22.5" stroke="#7A5503" stroke-width="3"/>
</svg>
