<svg width="48" height="49" viewBox="0 0 48 49" fill="none" xmlns="http://www.w3.org/2000/svg">
<path d="M23.958 23.1245C24.7314 23.1245 25.4189 23.812 25.4189 24.5854C25.4189 25.4019 24.7744 26.0894 23.958 26.0894C23.1416 26.0894 22.4971 25.4019 22.4971 24.5854C22.4971 23.812 23.1416 23.1245 23.958 23.1245ZM19.1885 23.1245C20.0049 23.1245 20.6494 23.812 20.6494 24.5854C20.6494 25.4019 20.0049 26.0894 19.1885 26.0894C18.3721 26.0894 17.7275 25.4019 17.7275 24.5854C17.7275 23.812 18.3721 23.1245 19.1885 23.1245ZM28.6846 23.1245C29.501 23.1245 30.1455 23.812 30.1455 24.5854C30.1455 25.4019 29.501 26.0894 28.6846 26.0894C27.8682 26.0894 27.2236 25.4019 27.2236 24.5854C27.2236 23.812 27.8682 23.1245 28.6846 23.1245ZM35.3018 20.7612C36.0322 21.9214 36.4189 23.1675 36.4189 24.4995C36.4189 25.7886 36.0322 27.0347 35.3018 28.1948C34.6143 29.2261 33.7119 30.1714 32.5088 30.9448C30.2314 32.4058 27.2666 33.2651 24.1299 33.2651C24.0869 33.2651 24.1299 33.2651 24.0869 33.2651C23.0557 33.2651 22.0244 33.1362 20.9932 32.9644C20.3916 33.6089 19.6611 34.1245 18.8877 34.5542C16.0088 35.9722 13.4736 35.4565 12.2275 34.9839C11.9697 34.8979 11.7979 34.6831 11.7979 34.4253C11.7979 34.2534 11.8838 34.0815 11.9697 33.9956C12.8721 33.0503 14.376 31.2026 13.9893 29.5269C12.5713 28.0659 11.7979 26.3042 11.7979 24.4565C11.7979 22.6519 12.5713 20.8901 13.9893 19.4292C14.376 17.7534 12.8721 15.9058 11.9697 14.9604C11.8838 14.8745 11.7979 14.7026 11.7979 14.5308C11.7979 14.2729 11.9697 14.0581 12.2275 13.9722C13.4736 13.4995 16.0088 12.9839 18.8877 14.4019C19.6611 14.8315 20.3916 15.3472 20.9932 15.9917C22.0244 15.8198 23.0127 15.6909 24.0869 15.6909C27.2666 15.6909 30.2314 16.5503 32.5088 18.0112C33.7119 18.7847 34.6143 19.73 35.3018 20.7612ZM23.958 31.0737C29.501 31.0737 33.9697 28.1948 33.9697 24.6284C33.9697 21.062 29.501 18.1401 23.958 18.1401C18.458 18.1401 13.9893 21.062 13.9893 24.6284C13.9893 26.1753 14.8057 27.5933 16.2236 28.7104C16.6533 29.9995 16.3955 31.4175 15.5361 33.0073C15.4932 33.0933 15.4502 33.1792 15.4072 33.2651C16.2236 33.1792 16.9971 32.9644 17.6846 32.6206C18.2432 32.2769 18.8018 31.8901 19.2744 31.4175L20.1338 30.6011C21.3369 30.9019 22.626 31.0737 23.915 31.0737C23.958 31.0737 23.958 31.0737 23.958 31.0737Z" fill="#7A5503"/>
<rect x="1.5" y="2.20654" width="45" height="45" rx="22.5" stroke="#7A5503" stroke-width="3"/>
</svg>
