<svg width="48" height="49" viewBox="0 0 48 49" fill="none" xmlns="http://www.w3.org/2000/svg">
<path d="M35.2158 13.8862C36.0322 15.7339 36.5049 17.9683 36.5049 20.1167C36.5049 27.5073 31.7354 33.5659 24.9893 34.0386C21.5088 34.4253 18.8877 32.6206 17.4697 30.73C15.2783 32.5776 14.4619 34.4683 14.376 34.6401C14.0752 35.3276 13.3018 35.6714 12.5713 35.3706C11.8838 35.0698 11.54 34.2964 11.8408 33.5659C12.8721 31.1167 17.4268 24.4565 28.2549 24.4565C28.5986 24.4565 28.9424 24.1558 28.9424 23.769C28.9424 23.4253 28.5986 23.0815 28.2549 23.0815C22.626 23.0815 18.6729 24.7573 15.9229 26.7339C15.8799 26.4331 15.8799 26.1323 15.8799 25.8315C15.8799 21.2769 19.5752 17.5815 24.1299 17.5815H27.5674C30.2744 17.5815 32.6377 16.1636 33.9697 13.8433C34.2705 13.3276 34.958 13.3706 35.2158 13.8862Z" fill="#7A5503"/>
<rect x="1.5" y="2.20654" width="45" height="45" rx="22.5" stroke="#7A5503" stroke-width="3"/>
</svg>
