<svg width="48" height="49" viewBox="0 0 48 49" fill="none" xmlns="http://www.w3.org/2000/svg">
<path d="M22.625 21.7065C22.9688 21.7065 23.3125 22.0503 23.3125 22.394C23.3125 22.7808 22.9688 23.0815 22.625 23.0815C22.2383 23.0815 21.9375 22.7808 21.9375 22.394C21.9375 22.0503 22.2383 21.7065 22.625 21.7065ZM33.0234 17.0659C33.7539 17.3667 34.3125 18.1401 34.3125 18.9565C34.3125 28.4956 28.4688 33.7808 24.7734 35.3276C24.5156 35.4136 24.2578 35.4565 23.957 35.4565C23.6992 35.4565 23.4414 35.4136 23.1836 35.3276C18.5859 33.394 13.6875 27.5073 13.6875 18.9565H13.6445C13.6445 18.1401 14.2031 17.3667 14.9336 17.0659L23.1836 13.6284C23.4414 13.5425 23.6992 13.4995 24 13.4565C24.2578 13.4995 24.5156 13.5425 24.7734 13.6284L33.0234 17.0659ZM29.5 24.4565C29.8438 24.4565 30.1875 24.1558 30.1875 23.769C30.1875 23.4253 29.8438 23.0815 29.5 23.0815H28.9414C27.7383 23.0815 27.1367 21.6206 27.9961 20.7612L28.3398 20.3745C28.4688 20.2456 28.5547 20.0737 28.5547 19.9019C28.5547 19.5151 28.2539 19.2144 27.8672 19.2144C27.6953 19.2144 27.5234 19.3003 27.3945 19.4292L27.0078 19.7729C26.1484 20.6323 24.6875 20.0308 24.6875 18.8276V18.269C24.6875 17.9253 24.3438 17.5815 24 17.5815C23.6133 17.5815 23.3125 17.9253 23.3125 18.269V18.8276C23.3125 20.0308 21.8086 20.6323 20.9492 19.7729L20.5625 19.4292C20.4336 19.3003 20.2617 19.2144 20.0898 19.2144C19.7031 19.2144 19.4023 19.5151 19.4023 19.9019C19.4023 20.0737 19.4883 20.2456 19.6172 20.3745L19.9609 20.7612C20.8203 21.6206 20.2188 23.0815 19.0156 23.0815H18.5C18.1133 23.0815 17.8125 23.4253 17.8125 23.769C17.8125 24.1558 18.1133 24.4565 18.5 24.4565H19.0156C20.2188 24.4565 20.8203 25.9604 19.9609 26.8198L19.6172 27.2065C19.4883 27.3354 19.4023 27.5073 19.4023 27.6792C19.4023 28.0659 19.7031 28.3667 20.0898 28.3667C20.2617 28.3667 20.4336 28.2808 20.5625 28.1519L20.9492 27.8081C21.8086 26.9487 23.3125 27.5503 23.3125 28.7534V29.269C23.3125 29.6558 23.6133 29.9565 24 29.9565C24.3438 29.9565 24.6875 29.6558 24.6875 29.269V28.7534C24.6875 27.5503 26.1484 26.9487 27.0078 27.8081L27.3945 28.1519C27.5234 28.2808 27.6953 28.3667 27.8672 28.3667C28.2539 28.3667 28.5547 28.0659 28.5547 27.6792C28.5547 27.5073 28.4688 27.3354 28.3398 27.2065L27.9961 26.8198C27.1367 25.9604 27.7383 24.4565 28.9414 24.4565H29.5ZM25.375 24.4565C25.7188 24.4565 26.0625 24.8003 26.0625 25.144C26.0625 25.5308 25.7188 25.8315 25.375 25.8315C24.9883 25.8315 24.6875 25.5308 24.6875 25.144C24.6875 24.8003 24.9883 24.4565 25.375 24.4565Z" fill="#7A5503"/>
<rect x="1.5" y="2.20654" width="45" height="45" rx="22.5" stroke="#7A5503" stroke-width="3"/>
</svg>
