<svg width="19" height="19" viewBox="0 0 19 19" fill="none" xmlns="http://www.w3.org/2000/svg">
<path d="M2.00781 12.6987L6.47266 8.23389L10.9727 12.7339L6.50781 17.1987C6.08594 17.6206 5.52344 17.8315 4.92578 17.8315H3.34375L1.375 18.9565L0.25 17.8315L1.375 15.8628V14.2808C1.375 13.6831 1.58594 13.1206 2.00781 12.6987ZM17.2305 1.97607C18.5664 3.27686 18.5664 5.42139 17.2305 6.72217L14.5234 9.4292L14.9805 9.92139C15.332 10.2378 15.332 10.7651 14.9805 11.0815L13.5391 12.5229C13.2227 12.8745 12.6953 12.8745 12.3438 12.5229L6.68359 6.86279C6.33203 6.51123 6.33203 5.98389 6.68359 5.66748L8.125 4.22607C8.44141 3.87451 8.96875 3.87451 9.28516 4.22607L9.77734 4.68311L12.4844 1.97607C13.7852 0.640137 15.9297 0.640137 17.2305 1.97607Z" fill="white"/>
</svg>
