<svg width="265" height="36" viewBox="0 0 265 36" fill="none" xmlns="http://www.w3.org/2000/svg">
<path d="M83.5308 22.9244L86.9245 20.9464C87.5491 22.383 88.5901 23.3408 90.5472 23.3408C92.421 23.3408 92.879 22.6121 92.879 21.9458C92.879 20.8839 91.9005 20.4675 89.3188 19.7596C86.7579 19.0516 84.2386 17.8232 84.2386 14.5126C84.2386 11.1812 87.0494 9.26562 90.0267 9.26562C92.8582 9.26562 95.0652 10.619 96.3352 13.1592L93.004 15.0956C92.421 13.8671 91.609 13.0967 90.0267 13.0967C88.7983 13.0967 88.1737 13.7214 88.1737 14.4085C88.1737 15.1997 88.5901 15.741 91.2759 16.5531C93.8784 17.3443 96.8141 18.2604 96.8141 21.9041C96.8141 25.2356 94.1491 27.1928 90.4223 27.1928C86.8204 27.1719 84.4885 25.4438 83.5308 22.9244Z" fill="white"/>
<path d="M109.743 13.3881H105.309V26.8387H101.374V13.3881H96.939V9.59863H109.743V13.3881Z" fill="white"/>
<path d="M109.743 18.2188C109.743 13.1384 113.762 9.26562 118.696 9.26562C123.651 9.26562 127.649 13.1592 127.649 18.2188C127.649 23.2783 123.631 27.1719 118.696 27.1719C113.762 27.1719 109.743 23.2783 109.743 18.2188ZM123.735 18.2188C123.735 15.1372 121.528 13.0967 118.717 13.0967C115.906 13.0967 113.699 15.1372 113.699 18.2188C113.699 21.3003 115.906 23.3408 118.717 23.3408C121.528 23.3408 123.735 21.2795 123.735 18.2188Z" fill="white"/>
<path d="M135.686 21.1753H133.812V26.8387H129.877V9.59863H136.768C140.037 9.59863 142.681 12.2221 142.681 15.5119C142.681 17.6356 141.411 19.5512 139.496 20.509L143.16 26.8387H138.934L135.686 21.1753ZM133.833 17.7189H136.789C137.872 17.7189 138.767 16.7612 138.767 15.5119C138.767 14.2626 137.872 13.3048 136.789 13.3048H133.833V17.7189Z" fill="white"/>
<path d="M150.426 18.2188C150.426 13.1384 154.195 9.26562 159.379 9.26562C162.502 9.26562 165.271 10.8064 166.77 13.2633L163.376 15.1997C162.606 13.8671 161.128 13.0759 159.379 13.0759C156.318 13.0759 154.361 15.1164 154.361 18.198C154.361 21.2795 156.339 23.32 159.379 23.32C161.128 23.32 162.627 22.5288 163.376 21.1962L166.77 23.1742C165.292 25.6103 162.544 27.1719 159.379 27.1719C154.195 27.1719 150.426 23.2783 150.426 18.2188Z" fill="white"/>
<path d="M167.645 18.2188C167.645 13.1384 171.663 9.26562 176.597 9.26562C181.552 9.26562 185.55 13.1592 185.55 18.2188C185.55 23.2783 181.532 27.1719 176.597 27.1719C171.642 27.1719 167.645 23.2783 167.645 18.2188ZM181.615 18.2188C181.615 15.1372 179.408 13.0967 176.597 13.0967C173.787 13.0967 171.58 15.1372 171.58 18.2188C171.58 21.3003 173.787 23.3408 176.597 23.3408C179.408 23.3408 181.615 21.2795 181.615 18.2188Z" fill="white"/>
<path d="M201.311 9.59863V26.8387H198.354L191.713 17.4899V26.8387H187.778V9.59863H190.734L197.376 18.9474V9.59863H201.311Z" fill="white"/>
<path d="M217.8 9.59863V26.8387H214.844L208.202 17.4691V26.8178H204.267V9.59863H207.224L213.865 18.9474V9.59863H217.8Z" fill="white"/>
<path d="M231.583 23.0284V26.8178H220.757V9.59863H231.458V13.3881H224.692V16.2406H230.855V19.9885H224.692V23.0492H231.583V23.0284Z" fill="white"/>
<path d="M232.937 18.2188C232.937 13.1384 236.705 9.26562 241.889 9.26562C245.013 9.26562 247.782 10.8064 249.281 13.2633L245.887 15.1997C245.117 13.8671 243.638 13.0759 241.889 13.0759C238.829 13.0759 236.872 15.1164 236.872 18.198C236.872 21.2795 238.85 23.32 241.889 23.32C243.638 23.32 245.137 22.5288 245.887 21.1962L249.281 23.1742C247.802 25.6103 245.054 27.1719 241.889 27.1719C236.705 27.1719 232.937 23.2783 232.937 18.2188Z" fill="white"/>
<path d="M262.689 13.3881H258.254V26.8387H254.319V13.3881H249.885V9.59863H262.689V13.3881Z" fill="white"/>
<path d="M77.8468 10.7646L75.8481 17.011L76.9516 20.4257H72.9124L74.932 14.096V14.1377L76.4102 9.59863H72.4127L66.5623 26.8387H70.872L71.7257 24.1111H78.1175L78.9919 26.8387H83.3017L77.8468 10.7646Z" fill="white"/>
<path d="M39.6418 18.1979L32.4589 25.4229L29.0027 28.8792L28.3573 29.5455C26.2961 31.6068 23.7144 33.0851 20.8828 33.8139C19.6128 34.1262 18.3219 34.2719 17.0727 34.2719C16.4689 34.2719 15.886 34.2303 15.2822 34.1678C11.7011 33.7514 8.30739 32.1274 5.72568 29.5455C2.95659 26.7555 1.29097 23.1117 1.02031 19.239C0.937027 17.8023 1.02031 16.3865 1.33261 14.9914L1.62409 13.7422L1.68656 13.5339C1.8323 13.0759 1.99886 12.597 2.20706 12.1181C2.58183 11.1603 3.03987 10.3067 3.5812 9.51544C4.16416 8.5993 4.85123 7.76645 5.70486 6.87114C8.76544 3.83123 12.7629 2.16553 16.9478 2.16553C20.2582 2.16553 23.4645 3.16495 26.1712 5.08051C26.8999 5.58022 27.5869 6.16321 28.2324 6.80867L28.9819 7.55824L25.5465 11.0146L24.8803 10.3483C24.1932 9.68201 23.4437 9.07819 22.6525 8.62013C20.9453 7.59988 19.009 7.05853 17.0311 7.05853H16.9686C14.0538 7.05853 11.2847 8.22452 9.18184 10.3275C8.57805 10.9313 8.09919 11.5351 7.66196 12.2222C7.2872 12.7844 6.99572 13.3466 6.72505 14.0128L6.66259 14.1378C6.55849 14.346 6.45439 14.6375 6.35029 14.9914L6.07963 16.095C5.89224 16.9903 5.82978 17.9481 5.89224 18.9267C6.07962 21.6126 7.24556 24.1528 9.18184 26.0892C10.9724 27.8798 13.3459 29.025 15.8651 29.3165C17.1143 29.4622 18.426 29.3789 19.6961 29.0666C21.5074 28.5877 23.173 27.6924 24.5472 26.4015V26.4223L24.6929 26.2766L24.8387 26.1516L25.5674 25.4229L29.0443 22.0082L36.2898 14.8665L39.6418 18.1979Z" fill="#7A5503"/>
<path d="M61.8361 17.1777C61.5655 13.3049 59.8999 9.66119 57.1308 6.89196C54.5491 4.33094 51.1554 2.68606 47.5743 2.26963C46.9913 2.20717 46.3875 2.16553 45.7837 2.16553C44.5345 2.16553 43.2437 2.31128 41.9736 2.6236C39.1421 3.35234 36.5604 4.83065 34.4992 6.89196L33.8537 7.55824L30.3976 11.0146L23.2146 18.2396L26.5875 21.6126L33.8329 14.4709L37.3099 11.0562L38.0386 10.3275L38.1844 10.2025L38.3301 10.0568V10.0776C39.7042 8.7867 41.3698 7.89138 43.1812 7.41249C44.4721 7.10017 45.7837 7.01689 47.0121 7.16264C49.5314 7.45413 51.8841 8.5993 53.6954 10.3899C55.6317 12.3263 56.7976 14.8665 56.985 17.5525C57.0475 18.5311 56.985 19.4888 56.7976 20.3842L56.527 21.4877C56.4229 21.8208 56.298 22.1123 56.2147 22.3414L56.1522 22.4871C55.9024 23.1326 55.5901 23.7156 55.2153 24.2777C54.7781 24.944 54.2784 25.5478 53.6954 26.1725C51.5926 28.2546 48.8235 29.4414 45.9087 29.4414H45.8462C43.8475 29.4414 41.9112 28.9001 40.2247 27.8798C39.4127 27.4009 38.6632 26.8179 37.997 26.1516L37.8929 26.0475C37.8096 25.9643 37.7263 25.881 37.6638 25.7769L36.5187 24.6942L33.0834 28.1297L33.8954 28.9417L34.6449 29.6913C35.2903 30.3367 35.9774 30.9197 36.7061 31.4194C39.4127 33.3142 42.6399 34.3136 45.9295 34.3344C50.1143 34.3344 54.1118 32.6687 57.1724 29.6288C58.026 28.7543 58.7131 27.9006 59.2961 26.9845C59.8166 26.1933 60.2746 25.3396 60.6702 24.3818C60.8992 23.903 61.045 23.4241 61.1907 22.966L61.2532 22.7786L61.5447 21.5293C61.8361 20.051 61.9194 18.6352 61.8361 17.1777Z" fill="#7A5503"/>
</svg>
