<svg width="288" height="39" viewBox="0 0 288 39" fill="none" xmlns="http://www.w3.org/2000/svg">
<path d="M91.0381 24.8697L94.704 22.7321C95.3787 24.2846 96.5033 25.3197 98.6174 25.3197C100.641 25.3197 101.136 24.5321 101.136 23.8121C101.136 22.6646 100.079 22.2146 97.2904 21.4496C94.5241 20.6846 91.8028 19.357 91.8028 15.7795C91.8028 12.1794 94.839 10.1094 98.0551 10.1094C101.114 10.1094 103.498 11.5719 104.87 14.317L101.271 16.4095C100.641 15.082 99.7644 14.2495 98.0551 14.2495C96.7282 14.2495 96.0534 14.9245 96.0534 15.667C96.0534 16.522 96.5033 17.107 99.4045 17.9845C102.216 18.8395 105.387 19.8296 105.387 23.7671C105.387 27.3672 102.508 29.4822 98.4824 29.4822C94.5916 29.4597 92.0726 27.5922 91.0381 24.8697Z" fill="black"/>
<path d="M119.354 14.5648H114.563V29.1001H110.312V14.5648H105.522V10.4697H119.354V14.5648Z" fill="black"/>
<path d="M119.354 19.7846C119.354 14.2945 123.695 10.1094 129.025 10.1094C134.378 10.1094 138.696 14.317 138.696 19.7846C138.696 25.2522 134.355 29.4597 129.025 29.4597C123.695 29.4597 119.354 25.2522 119.354 19.7846ZM134.468 19.7846C134.468 16.4545 132.084 14.2495 129.047 14.2495C126.011 14.2495 123.627 16.4545 123.627 19.7846C123.627 23.1146 126.011 25.3197 129.047 25.3197C132.084 25.3197 134.468 23.0921 134.468 19.7846Z" fill="black"/>
<path d="M147.377 22.98H145.353V29.1001H141.102V10.4697H148.546C152.077 10.4697 154.934 13.3048 154.934 16.8598C154.934 19.1549 153.562 21.2249 151.493 22.2599L155.451 29.1001H150.885L147.377 22.98ZM145.375 19.2449H148.569C149.738 19.2449 150.705 18.2099 150.705 16.8598C150.705 15.5098 149.738 14.4748 148.569 14.4748H145.375V19.2449Z" fill="black"/>
<path d="M163.3 19.7846C163.3 14.2945 167.371 10.1094 172.971 10.1094C176.344 10.1094 179.335 11.7744 180.955 14.4295L177.289 16.522C176.457 15.082 174.86 14.227 172.971 14.227C169.665 14.227 167.55 16.432 167.55 19.7621C167.55 23.0921 169.687 25.2972 172.971 25.2972C174.86 25.2972 176.479 24.4421 177.289 23.0021L180.955 25.1397C179.358 27.7722 176.389 29.4597 172.971 29.4597C167.371 29.4597 163.3 25.2522 163.3 19.7846Z" fill="black"/>
<path d="M181.899 19.7846C181.899 14.2945 186.24 10.1094 191.57 10.1094C196.923 10.1094 201.241 14.317 201.241 19.7846C201.241 25.2522 196.901 29.4597 191.57 29.4597C186.218 29.4597 181.899 25.2522 181.899 19.7846ZM196.99 19.7846C196.99 16.4545 194.607 14.2495 191.57 14.2495C188.534 14.2495 186.15 16.4545 186.15 19.7846C186.15 23.1146 188.534 25.3197 191.57 25.3197C194.607 25.3197 196.99 23.0921 196.99 19.7846Z" fill="black"/>
<path d="M218.266 10.4697V29.1001H215.073L207.898 18.9974V29.1001H203.647V10.4697H206.841L214.016 20.5724V10.4697H218.266Z" fill="black"/>
<path d="M236.079 10.4697V29.1001H232.886L225.711 18.9749V29.0776H221.46V10.4697H224.654L231.829 20.5724V10.4697H236.079Z" fill="black"/>
<path d="M250.967 24.9825V29.0776H239.272V10.4697H250.833V14.5648H243.523V17.6474H250.18V21.6974H243.523V25.005H250.967V24.9825Z" fill="black"/>
<path d="M252.43 19.7846C252.43 14.2945 256.5 10.1094 262.101 10.1094C265.474 10.1094 268.465 11.7744 270.085 14.4295L266.419 16.522C265.587 15.082 263.99 14.227 262.101 14.227C258.794 14.227 256.68 16.432 256.68 19.7621C256.68 23.0921 258.817 25.2972 262.101 25.2972C263.99 25.2972 265.609 24.4421 266.419 23.0021L270.085 25.1397C268.488 27.7722 265.519 29.4597 262.101 29.4597C256.5 29.4597 252.43 25.2522 252.43 19.7846Z" fill="black"/>
<path d="M284.568 14.5648H279.778V29.1001H275.527V14.5648H270.737V10.4697H284.568V14.5648Z" fill="black"/>
<path d="M84.8983 11.7298L82.7392 18.4799L83.9312 22.1699H79.5681L81.7496 15.3298V15.3748L83.3465 10.4697H79.0283L72.7085 29.1001H77.364L78.2861 26.1525H85.1907L86.1353 29.1001H90.7908L84.8983 11.7298Z" fill="black"/>
<path d="M43.628 19.7618L35.8688 27.5695L32.1354 31.3046L31.4382 32.0246C29.2116 34.2521 26.4228 35.8496 23.3641 36.6372C21.9922 36.9747 20.5978 37.1322 19.2483 37.1322C18.5961 37.1322 17.9664 37.0872 17.3142 37.0197C13.4458 36.5697 9.77988 34.8146 6.99107 32.0246C3.99985 29.0095 2.20061 25.0719 1.90824 20.8869C1.81828 19.3343 1.90824 17.8043 2.24559 16.2968L2.56046 14.9468L2.62793 14.7218C2.78536 14.2267 2.96529 13.7092 3.19019 13.1917C3.59502 12.1567 4.08981 11.2342 4.67456 10.3792C5.30429 9.38915 6.04647 8.48914 6.96858 7.52162C10.2747 4.23656 14.5928 2.43652 19.1134 2.43652C22.6894 2.43652 26.1529 3.51654 29.0767 5.58658C29.8638 6.12659 30.606 6.7566 31.3032 7.45412L32.1129 8.26413L28.4019 11.9992L27.6823 11.2792C26.9401 10.5592 26.1304 9.90666 25.2758 9.41165C23.4316 8.30913 21.34 7.72412 19.2034 7.72412H19.1359C15.9872 7.72412 12.996 8.98415 10.7245 11.2567C10.0723 11.9092 9.55498 12.5617 9.08268 13.3042C8.67785 13.9117 8.36299 14.5192 8.07061 15.2393L8.00314 15.3743C7.89069 15.5993 7.77824 15.9143 7.66578 16.2968L7.37341 17.4893C7.171 18.4568 7.10352 19.4918 7.171 20.5494C7.37341 23.4519 8.63287 26.197 10.7245 28.2895C12.6587 30.2245 15.2226 31.4621 17.9439 31.7771C19.2933 31.9346 20.7102 31.8446 22.0821 31.5071C24.0388 30.9896 25.838 30.022 27.3224 28.627V28.6495L27.4798 28.492L27.6373 28.357L28.4244 27.5695L32.1803 23.8794L40.007 16.1618L43.628 19.7618Z" fill="#7A5503"/>
<path d="M67.6025 18.6593C67.3102 14.4742 65.5109 10.5367 62.5197 7.54412C59.7309 4.77657 56.065 2.99903 52.1966 2.54903C51.5669 2.48152 50.9146 2.43652 50.2624 2.43652C48.913 2.43652 47.5186 2.59403 46.1467 2.93153C43.088 3.71905 40.2992 5.31658 38.0726 7.54412L37.3754 8.26413L33.642 11.9992L25.8828 19.8068L29.5263 23.4519L37.3529 15.7343L41.1088 12.0442L41.896 11.2567L42.0534 11.1217L42.2109 10.9642V10.9867C43.6952 9.59166 45.4945 8.62414 47.4511 8.10663C48.8455 7.76912 50.2624 7.67912 51.5894 7.83662C54.3107 8.15163 56.8521 9.38915 58.8088 11.3242C60.9004 13.4167 62.1599 16.1618 62.3623 19.0643C62.4297 20.1219 62.3623 21.1569 62.1599 22.1244L61.8675 23.3169C61.755 23.6769 61.6201 23.9919 61.5301 24.2394L61.4627 24.3969C61.1928 25.0944 60.8554 25.7245 60.4506 26.332C59.9783 27.052 59.4385 27.7045 58.8088 28.3795C56.5373 30.6295 53.546 31.9121 50.3974 31.9121H50.3299C48.1708 31.9121 46.0792 31.3271 44.2575 30.2245C43.3804 29.707 42.5707 29.077 41.851 28.357L41.7386 28.2445C41.6486 28.1545 41.5586 28.0645 41.4912 27.952L40.2542 26.782L36.5433 30.4945L37.4204 31.3721L38.2301 32.1821C38.9273 32.8796 39.6694 33.5096 40.4566 34.0496C43.3804 36.0972 46.8664 37.1772 50.4199 37.1997C54.9404 37.1997 59.2586 35.3996 62.5647 32.1146C63.4868 31.1696 64.229 30.247 64.8587 29.257C65.421 28.402 65.9158 27.4795 66.3431 26.4445C66.5905 25.927 66.7479 25.4095 66.9053 24.9144L66.9728 24.7119L67.2877 23.3619C67.6025 21.7644 67.6925 20.2344 67.6025 18.6593Z" fill="#7A5503"/>
</svg>
