<svg width="293" height="13" viewBox="0 0 293 13" fill="none" xmlns="http://www.w3.org/2000/svg">
<path d="M1 7.98049C12.7234 3.56813 30.6787 4.01979 43.6979 5.13156C47.5851 5.51374 51.6574 5.86117 55.5447 6.31283C65.7255 7.4246 76.2149 8.50164 86.766 8.22369C94.6021 8.01523 102.13 7.04243 109.411 6.10437C116.198 5.23579 123.232 4.33247 130.513 4.05453C145.506 3.39441 160.438 5.23579 174.877 6.97294C191.906 9.09226 208.072 11.0726 224.485 9.33547C230.594 8.67535 236.332 7.49408 241.947 6.41705C247.006 5.37476 252.374 4.36722 257.928 3.63762C270.453 2.10892 286.187 3.25544 291 7.87626" stroke="#7A5503" stroke-width="5.37745"/>
</svg>
