<svg width="271" height="13" viewBox="0 0 271 13" fill="none" xmlns="http://www.w3.org/2000/svg">
<path d="M2 7.68703C12.7936 3.27467 29.3249 3.72633 41.3115 4.83811C44.8904 5.22028 48.6398 5.56771 52.2187 6.01937C61.5921 7.13115 71.2496 8.20818 80.9638 7.93023C88.1785 7.72178 95.1092 6.74897 101.813 5.81091C108.061 4.94234 114.538 4.03902 121.241 3.76107C135.046 3.10096 148.793 4.94234 162.086 6.67949C177.766 8.79881 192.649 10.7792 207.76 9.04201C213.384 8.38189 218.668 7.20063 223.837 6.1236C228.496 5.08131 233.438 4.07376 238.551 3.34416C250.083 1.81547 264.569 2.96199 269 7.5828" stroke="#7A5503" stroke-width="5.37745"/>
</svg>
