<svg width="108" height="12" viewBox="0 0 108 12" fill="none" xmlns="http://www.w3.org/2000/svg">
<path d="M2 7.68703C6.20426 3.27467 12.6434 3.72633 17.3123 4.83811C18.7064 5.22028 20.1668 5.56771 21.5609 6.01937C25.2119 7.13115 28.9736 8.20818 32.7574 7.93023C35.5677 7.72178 38.2672 6.74897 40.8783 5.81091C43.3123 4.94234 45.8349 4.03902 48.446 3.76107C53.823 3.10096 59.1779 4.94234 64.3557 6.67949C70.463 8.79881 76.2604 10.7792 82.1464 9.04201C84.337 8.38189 86.3949 7.20063 88.4085 6.1236C90.223 5.08131 92.1481 4.07376 94.1396 3.34416C98.6315 1.81547 104.274 2.96199 106 7.5828" stroke="#7A5503" stroke-width="4"/>
</svg>
