<svg width="350" height="13" viewBox="0 0 350 13" fill="none" xmlns="http://www.w3.org/2000/svg">
<path d="M1 7.7728C15.0277 2.7301 36.5121 3.24628 52.0902 4.51688C56.7415 4.95365 61.6143 5.35072 66.2655 5.8669C78.4474 7.1375 90.9985 8.36839 103.623 8.05074C113 7.81251 122.007 6.70073 130.719 5.62866C138.84 4.636 147.257 3.60364 155.969 3.28599C173.909 2.53157 191.776 4.636 209.052 6.62132C229.429 9.0434 248.773 11.3067 268.412 9.32134C275.721 8.56692 282.587 7.21691 289.305 5.98601C295.359 4.79483 301.783 3.64335 308.427 2.80951C323.415 1.06244 342.241 2.37275 348 7.65368" stroke="white" stroke-width="4"/>
</svg>
