<svg width="264" height="13" viewBox="0 0 264 13" fill="none" xmlns="http://www.w3.org/2000/svg">
<path d="M2 7.98049C12.5106 3.56813 28.6085 4.01979 40.2808 5.13156C43.766 5.51374 47.417 5.86117 50.9021 6.31283C60.0298 7.4246 69.434 8.50164 78.8936 8.22369C85.9191 8.01523 92.6681 7.04243 99.1957 6.10437C105.281 5.23579 111.587 4.33247 118.115 4.05453C131.557 3.39441 144.945 5.23579 157.889 6.97294C173.157 9.09226 187.651 11.0726 202.366 9.33547C207.843 8.67535 212.987 7.49408 218.021 6.41705C222.557 5.37476 227.37 4.36722 232.349 3.63762C243.579 2.10892 257.685 3.25545 262 7.87626" stroke="#7A5503" stroke-width="5.37745"/>
</svg>
