<svg width="23" height="23" viewBox="0 0 23 23" fill="none" xmlns="http://www.w3.org/2000/svg">
<path d="M11.7353 0.660156C5.6429 0.660156 0.658203 5.65376 0.658203 11.804C0.658203 17.3648 4.71243 21.9803 10.0073 22.8144V15.0293H7.1937V11.804H10.0073V9.34614C10.0073 6.55461 11.6578 5.01983 14.1944 5.01983C15.4018 5.01983 16.6646 5.23114 16.6646 5.23114V7.97818H15.2689C13.8954 7.97818 13.4633 8.83454 13.4633 9.71315V11.804H16.5428L16.0443 15.0293H13.4633V22.8144C16.0736 22.4005 18.4505 21.0633 20.1649 19.0443C21.8794 17.0252 22.8184 14.4572 22.8124 11.804C22.8124 5.65376 17.8277 0.660156 11.7353 0.660156Z" fill="#7A5503"/>
</svg>
