<svg width="17" height="17" viewBox="0 0 17 17" fill="none" xmlns="http://www.w3.org/2000/svg">
<path d="M8.49893 0.333496C4.00727 0.333496 0.332275 4.01506 0.332275 8.54936C0.332275 12.6491 3.32127 16.0519 7.22493 16.6668V10.9272H5.1506V8.54936H7.22493V6.73728C7.22493 4.67921 8.44177 3.54769 10.3119 3.54769C11.2021 3.54769 12.1331 3.70348 12.1331 3.70348V5.72874H11.1041C10.0914 5.72874 9.77293 6.3601 9.77293 7.00786V8.54936H12.0433L11.6758 10.9272H9.77293V16.6668C11.6974 16.3617 13.4497 15.3758 14.7137 13.8873C15.9777 12.3987 16.67 10.5055 16.6656 8.54936C16.6656 4.01506 12.9906 0.333496 8.49893 0.333496Z" fill="white"/>
</svg>
