<svg width="17" height="19" viewBox="0 0 17 19" fill="none" xmlns="http://www.w3.org/2000/svg">
<path d="M11.8613 1.98462C14.4277 4.34009 16.2559 8.20728 16.2559 10.0706C16.2559 14.5354 12.7051 18.1565 8.38086 18.1565C4.02148 18.1565 0.505859 14.5354 0.505859 10.0706C0.505859 7.53931 2.93164 3.39087 6.41211 0.156494C7.74805 1.42212 8.94336 2.75806 9.89258 4.09399C10.4551 3.35571 11.123 2.65259 11.8613 1.98462ZM11.1934 13.9377C12.916 12.7424 13.3027 10.387 12.3535 8.55884C12.248 8.3479 12.1074 8.10181 11.9668 7.85571L9.89258 10.2112C9.89258 10.2112 6.6582 6.06274 6.41211 5.78149C4.72461 7.85571 3.88086 9.05103 3.88086 10.387C3.88086 13.1292 5.91992 14.7815 8.45117 14.7815C9.4707 14.7815 10.4199 14.5002 11.1934 13.9377Z" fill="black"/>
</svg>
