<svg width="23" height="23" viewBox="0 0 23 23" fill="none" xmlns="http://www.w3.org/2000/svg">
<path d="M13.0499 0.661519C13.8581 0.658417 14.6664 0.666541 15.4745 0.685888L15.6894 0.693642C15.9375 0.702503 16.1823 0.71358 16.478 0.726872C17.6566 0.782256 18.4608 0.968345 19.1663 1.24194C19.8974 1.52329 20.5132 1.90433 21.1291 2.5202C21.6922 3.0736 22.128 3.74301 22.4062 4.48189C22.6798 5.18748 22.8659 5.99276 22.9213 7.17133C22.9346 7.46597 22.9457 7.71187 22.9545 7.95999L22.9612 8.17488C22.9808 8.98259 22.9893 9.79053 22.9866 10.5985L22.9877 11.4248V12.8759C22.9905 13.6842 22.982 14.4925 22.9623 15.3006L22.9556 15.5154C22.9468 15.7636 22.9357 16.0084 22.9224 16.3041C22.867 17.4827 22.6787 18.2868 22.4062 18.9924C22.1289 19.7321 21.693 20.4021 21.1291 20.9552C20.5752 21.5183 19.9055 21.9541 19.1663 22.2324C18.4608 22.506 17.6566 22.6921 16.478 22.7475C16.1823 22.7607 15.9375 22.7718 15.6894 22.7807L15.4745 22.7873C14.6664 22.807 13.8582 22.8155 13.0499 22.8128L12.2235 22.8139H10.7736C9.96532 22.8166 9.15703 22.8081 8.34896 22.7884L8.13408 22.7818C7.87113 22.7723 7.60824 22.7612 7.34543 22.7486C6.16688 22.6932 5.36272 22.5049 4.65604 22.2324C3.91688 21.9547 3.24736 21.5188 2.69438 20.9552C2.13063 20.4017 1.69441 19.7319 1.41614 18.9924C1.14255 18.2868 0.956466 17.4827 0.901083 16.3041C0.888747 16.0413 0.87767 15.7784 0.867853 15.5154L0.862315 15.3006C0.841894 14.4925 0.832662 13.6842 0.834623 12.8759V10.5985C0.831532 9.79053 0.839656 8.98259 0.858992 8.17488L0.866746 7.95999C0.875607 7.71187 0.886683 7.46597 0.899975 7.17133C0.955358 5.99165 1.14144 5.18859 1.41504 4.48189C1.69347 3.74265 2.13054 3.07342 2.69549 2.52131C3.24809 1.95722 3.91719 1.5206 4.65604 1.24194C5.36272 0.968345 6.16577 0.782256 7.34543 0.726872L8.13408 0.693642L8.34896 0.688104C9.15665 0.667692 9.96457 0.658461 10.7725 0.660412L13.0499 0.661519ZM11.9112 6.19989C11.1774 6.18952 10.4488 6.32509 9.76784 6.59873C9.08688 6.87238 8.46709 7.27864 7.9445 7.7939C7.4219 8.30916 7.00693 8.92316 6.72368 9.60019C6.44044 10.2772 6.29458 11.0038 6.29458 11.7377C6.29458 12.4716 6.44044 13.1982 6.72368 13.8752C7.00693 14.5523 7.4219 15.1663 7.9445 15.6815C8.46709 16.1968 9.08688 16.6031 9.76784 16.8767C10.4488 17.1503 11.1774 17.2859 11.9112 17.2755C13.38 17.2755 14.7887 16.692 15.8273 15.6534C16.866 14.6147 17.4495 13.206 17.4495 11.7372C17.4495 10.2683 16.866 8.85959 15.8273 7.82094C14.7887 6.78229 13.38 6.19989 11.9112 6.19989ZM11.9112 8.41525C12.3526 8.40711 12.7912 8.48702 13.2014 8.6503C13.6116 8.81358 13.9851 9.05697 14.3002 9.36623C14.6152 9.6755 14.8655 10.0444 15.0364 10.4515C15.2072 10.8586 15.2953 11.2957 15.2954 11.7372C15.2954 12.1786 15.2075 12.6157 15.0368 13.0229C14.8661 13.43 14.6159 13.799 14.3009 14.1084C13.986 14.4178 13.6125 14.6613 13.2024 14.8247C12.7923 14.9881 12.3537 15.0682 11.9123 15.0602C11.031 15.0602 10.1858 14.7101 9.5626 14.0869C8.93942 13.4637 8.58932 12.6185 8.58932 11.7372C8.58932 10.8558 8.93942 10.0106 9.5626 9.38743C10.1858 8.76424 11.031 8.41414 11.9123 8.41414L11.9112 8.41525ZM17.7264 4.53838C17.369 4.55268 17.0311 4.7047 16.7833 4.96259C16.5356 5.22048 16.3972 5.56424 16.3972 5.92187C16.3972 6.2795 16.5356 6.62326 16.7833 6.88115C17.0311 7.13904 17.369 7.29105 17.7264 7.30535C18.0936 7.30535 18.4458 7.15948 18.7054 6.89982C18.9651 6.64015 19.1109 6.28798 19.1109 5.92076C19.1109 5.55354 18.9651 5.20137 18.7054 4.9417C18.4458 4.68204 18.0936 4.53617 17.7264 4.53617V4.53838Z" fill="#7A5503"/>
</svg>
