<svg width="17" height="17" viewBox="0 0 17 17" fill="none" xmlns="http://www.w3.org/2000/svg">
<path d="M9.33848 0.334501C9.9344 0.332214 10.5303 0.338203 11.1261 0.352467L11.2845 0.358183C11.4674 0.364717 11.6479 0.372883 11.8659 0.382683C12.7348 0.423515 13.3277 0.56071 13.8479 0.76242C14.3869 0.969846 14.8409 1.25077 15.2949 1.70482C15.7101 2.11282 16.0314 2.60635 16.2365 3.15109C16.4382 3.67129 16.5754 4.26498 16.6162 5.13389C16.626 5.35111 16.6342 5.53241 16.6407 5.71533L16.6456 5.87376C16.6602 6.46925 16.6664 7.06491 16.6644 7.66057L16.6652 8.26978V9.33958C16.6673 9.93551 16.661 10.5314 16.6465 11.1272L16.6416 11.2856C16.635 11.4686 16.6269 11.649 16.6171 11.8671C16.5762 12.736 16.4374 13.3289 16.2365 13.8491C16.0321 14.3944 15.7107 14.8883 15.2949 15.2961C14.8866 15.7113 14.3928 16.0325 13.8479 16.2377C13.3277 16.4394 12.7348 16.5766 11.8659 16.6175C11.6479 16.6273 11.4674 16.6354 11.2845 16.642L11.1261 16.6469C10.5303 16.6614 9.93441 16.6676 9.33848 16.6656L8.72928 16.6665H7.66032C7.0644 16.6685 6.46848 16.6622 5.87273 16.6477L5.7143 16.6428C5.52045 16.6358 5.32663 16.6276 5.13287 16.6183C4.26398 16.5774 3.67111 16.4386 3.1501 16.2377C2.60516 16.033 2.11155 15.7117 1.70386 15.2961C1.28823 14.8881 0.966631 14.3942 0.761475 13.8491C0.559768 13.3289 0.422575 12.736 0.381744 11.8671C0.372649 11.6733 0.364483 11.4795 0.357245 11.2856L0.353162 11.1272C0.338107 10.5314 0.331301 9.93552 0.332747 9.33958V7.66057C0.330467 7.06491 0.336457 6.46925 0.350712 5.87376L0.356429 5.71533C0.362962 5.53241 0.371128 5.35111 0.380927 5.13389C0.421759 4.26417 0.558952 3.6721 0.760658 3.15109C0.965935 2.60608 1.28817 2.11269 1.70468 1.70564C2.11209 1.28977 2.60538 0.967864 3.1501 0.76242C3.67111 0.56071 4.26316 0.423515 5.13287 0.382683L5.7143 0.358183L5.87273 0.3541C6.4682 0.339052 7.06385 0.332246 7.6595 0.333684L9.33848 0.334501ZM8.49899 4.4177C7.95799 4.41004 7.42085 4.50999 6.91881 4.71174C6.41676 4.91349 5.95982 5.213 5.57453 5.59288C5.18925 5.97276 4.88331 6.42543 4.67449 6.92458C4.46566 7.42373 4.35813 7.95941 4.35813 8.50048C4.35813 9.04155 4.46566 9.57723 4.67449 10.0764C4.88331 10.5755 5.18925 11.0282 5.57453 11.4081C5.95982 11.788 6.41676 12.0875 6.91881 12.2892C7.42085 12.491 7.95799 12.5909 8.49899 12.5833C9.58191 12.5833 10.6205 12.1531 11.3862 11.3873C12.1519 10.6216 12.5821 9.583 12.5821 8.50007C12.5821 7.41714 12.1519 6.37857 11.3862 5.61282C10.6205 4.84707 9.58191 4.4177 8.49899 4.4177ZM8.49899 6.05097C8.82443 6.04498 9.14779 6.10389 9.4502 6.22427C9.7526 6.34465 10.028 6.52409 10.2603 6.75209C10.4926 6.9801 10.6771 7.25211 10.8031 7.55223C10.929 7.85236 10.9939 8.17457 10.994 8.50007C10.9941 8.82556 10.9293 9.1478 10.8034 9.44796C10.6775 9.74813 10.4931 10.0202 10.2609 10.2483C10.0287 10.4764 9.75332 10.6559 9.45095 10.7764C9.14859 10.8969 8.82524 10.9559 8.49981 10.95C7.85006 10.95 7.22693 10.6919 6.76749 10.2324C6.30805 9.77298 6.04994 9.14983 6.04994 8.50007C6.04994 7.85032 6.30805 7.22717 6.76749 6.76772C7.22693 6.30827 7.85006 6.05016 8.49981 6.05016L8.49899 6.05097ZM12.7863 3.19274C12.5228 3.20328 12.2737 3.31536 12.091 3.50549C11.9083 3.69562 11.8063 3.94905 11.8063 4.21272C11.8063 4.47638 11.9083 4.72982 12.091 4.91995C12.2737 5.11008 12.5228 5.22216 12.7863 5.2327C13.057 5.2327 13.3166 5.12515 13.5081 4.93372C13.6995 4.74228 13.8071 4.48264 13.8071 4.2119C13.8071 3.94117 13.6995 3.68153 13.5081 3.49009C13.3166 3.29865 13.057 3.1911 12.7863 3.1911V3.19274Z" fill="white"/>
</svg>
