<svg width="167" height="581" viewBox="0 0 167 581" fill="none" xmlns="http://www.w3.org/2000/svg">
<mask id="mask0_1_491" style="mask-type:alpha" maskUnits="userSpaceOnUse" x="0" y="0" width="167" height="581">
<rect width="167" height="580" transform="matrix(-1 0 0 1 167 0.706543)" fill="#292929"/>
</mask>
<g mask="url(#mask0_1_491)">
<path d="M105.963 373.707C91.5627 377.835 84.6866 394.53 81.352 407.764C80.4621 411.787 79.4183 415.926 78.6747 420.05C76.5774 430.747 74.2725 441.67 69.0879 450.699C65.2331 457.401 59.9035 462.729 54.7546 467.885C49.9673 472.701 44.9992 477.687 41.2401 483.794C33.3143 496.243 30.682 512.235 28.0454 527.637C25.0838 545.904 22.2062 563.199 11.3942 575.367C7.34153 579.876 2.35308 583.304 -2.36213 586.772C-6.76212 589.794 -11.2234 593.142 -15.1803 597.054C-23.8589 606.048 -28.3038 621.758 -20.6732 632.707" stroke="#64C8B0" stroke-width="8"/>
<path d="M154.631 494.091C151.375 491.753 147.551 493.314 144.904 495.005C144.122 495.546 143.294 496.075 142.523 496.665C140.492 498.161 138.389 499.653 136.054 500.183C134.32 500.575 132.529 500.4 130.798 500.233C129.185 500.082 127.512 499.923 125.887 500.227C122.526 500.791 119.582 503.135 116.728 505.37C113.373 508.057 110.183 510.585 106.341 510.478C104.909 510.429 103.473 509.982 102.081 509.601C100.814 509.207 99.4869 508.859 98.164 508.721C95.1991 508.495 91.9686 510.399 91.6684 514.027" stroke="#64C8B0" stroke-width="8"/>
</g>
</svg>
