<svg width="84" height="44" viewBox="0 0 84 44" fill="none" xmlns="http://www.w3.org/2000/svg">
<path d="M53.2978 21.9288L43.393 31.811L38.6273 36.5385L37.7373 37.4498C34.895 40.2693 31.3351 42.2913 27.4306 43.288C25.6793 43.7152 23.8993 43.9146 22.1768 43.9146C21.3442 43.9146 20.5403 43.8576 19.7078 43.7722C14.7697 43.2026 10.0901 40.9812 6.53013 37.4498C2.71178 33.6337 0.415027 28.6498 0.041805 23.3528C-0.0730327 21.3877 0.041805 19.4511 0.472446 17.543L0.874378 15.8343L0.960506 15.5495C1.16147 14.923 1.39115 14.268 1.67824 13.6129C2.19501 12.3029 2.82662 11.1353 3.57306 10.0531C4.37693 8.8 5.32434 7.66084 6.50142 6.43625C10.7217 2.27832 16.2339 0 22.0045 0C26.5693 0 30.9906 1.36699 34.7228 3.98706C35.7276 4.67055 36.675 5.46796 37.565 6.35081L38.5986 7.37605L33.8615 12.1036L32.9428 11.1922C31.9954 10.2809 30.9619 9.45502 29.8709 8.82848C27.5167 7.43301 24.8467 6.69256 22.1194 6.69256H22.0332C18.0139 6.69256 14.1955 8.28738 11.2959 11.1638C10.4633 11.9896 9.80301 12.8155 9.20011 13.7553C8.68334 14.5243 8.28141 15.2932 7.90819 16.2045L7.82206 16.3754C7.67851 16.6602 7.53496 17.0589 7.39142 17.543L7.01819 19.0524C6.75981 20.277 6.67368 21.5871 6.75981 22.9256C7.01819 26.5994 8.62592 30.0738 11.2959 32.7223C13.7649 35.1715 17.0378 36.7379 20.5116 37.1366C22.2342 37.3359 24.0429 37.222 25.7942 36.7948C28.2919 36.1398 30.5886 34.9152 32.4835 33.1495V33.178L32.6844 32.9786L32.8854 32.8078L33.8902 31.811L38.6847 27.1405L48.6756 17.3722L53.2978 21.9288Z" fill="white"/>
<path d="M83.9044 20.5333C83.5312 15.2362 81.2344 10.2524 77.4161 6.46472C73.8561 2.96181 69.1765 0.711974 64.2385 0.142395C63.4346 0.0569579 62.602 0 61.7695 0C60.0469 0 58.2669 0.199353 56.5156 0.626537C52.6111 1.6233 49.0512 3.64531 46.2089 6.46472L45.319 7.37605L40.5532 12.1036L30.6484 21.9858L35.2994 26.5994L45.2902 16.8311L50.0847 12.1605L51.0895 11.1638L51.2905 10.9929L51.4915 10.7935V10.822C53.3863 9.05631 55.6831 7.83172 58.1808 7.1767C59.9608 6.74951 61.7695 6.6356 63.4633 6.83495C66.9371 7.23366 70.1813 8.8 72.679 11.2492C75.349 13.8977 76.9567 17.3722 77.2151 21.046C77.3013 22.3845 77.2151 23.6945 76.9567 24.9191L76.5835 26.4285C76.44 26.8841 76.2677 27.2828 76.1529 27.5961L76.0667 27.7955C75.7222 28.6783 75.2916 29.4757 74.7748 30.2447C74.1719 31.156 73.4829 31.9819 72.679 32.8362C69.7794 35.6841 65.961 37.3074 61.9417 37.3074H61.8556C59.0995 37.3074 56.4295 36.567 54.104 35.1715C52.9844 34.5165 51.9508 33.7191 51.0321 32.8078L50.8886 32.6654C50.7737 32.5515 50.6589 32.4375 50.5728 32.2951L48.9938 30.8142L44.2567 35.5133L45.3764 36.624L46.4099 37.6492C47.2999 38.532 48.2473 39.3295 49.2521 40.0129C52.9844 42.6045 57.4343 43.9715 61.9704 44C67.741 44 73.2532 41.7217 77.4735 37.5638C78.6506 36.3676 79.598 35.2 80.4019 33.9469C81.1196 32.8647 81.7512 31.6971 82.2967 30.3871C82.6125 29.732 82.8135 29.077 83.0144 28.4505L83.1006 28.1942L83.5025 26.4854C83.9044 24.4634 84.0193 22.5269 83.9044 20.5333Z" fill="white"/>
</svg>
