<svg width="25" height="23" viewBox="0 0 25 23" fill="none" xmlns="http://www.w3.org/2000/svg">
<path fill-rule="evenodd" clip-rule="evenodd" d="M5.78227 7.85512C5.50792 8.14254 5.47744 8.60028 5.71013 8.91964L5.84324 9.05803L10.4666 12.8371C11.0357 13.3054 11.7256 13.5609 12.4481 13.5609C13.1656 13.5609 13.8651 13.3075 14.4319 12.8427C14.4341 12.8408 14.4364 12.8389 14.4387 12.8371L19.0224 8.99415L19.1037 8.90899C19.3466 8.60028 19.3466 8.15319 19.0925 7.84448C18.9513 7.68586 18.7572 7.58899 18.555 7.5677C18.3468 7.55627 18.1482 7.62799 17.9961 7.76998C17.9924 7.77348 17.9887 7.77702 17.985 7.78061L13.4032 11.6129C13.1243 11.8552 12.7882 11.9829 12.4481 11.9958C12.094 12.0093 11.7356 11.8984 11.4328 11.6633C11.4314 11.6622 11.4301 11.6611 11.4287 11.6601C11.4092 11.6448 11.39 11.6291 11.371 11.6129L6.7984 7.78061C6.48239 7.53577 6.04545 7.5677 5.78227 7.85512ZM22.3048 2.40733C21.0178 1.05614 19.2537 0.290283 17.4058 0.290283H7.36743C3.48571 0.290283 0.483887 3.55117 0.483887 7.40803V15.8177C0.483887 19.6768 3.49806 22.9354 7.36743 22.9354H17.4058C21.2747 22.9354 24.2903 19.6773 24.2903 15.8177V7.40803C24.2903 5.54483 23.5859 3.74905 22.3048 2.40733ZM21.0435 3.60877C20.0792 2.59641 18.7684 2.03222 17.4058 2.03222H7.36743C4.52126 2.03222 2.22582 4.43803 2.22582 7.40803V15.8177C2.22582 18.7877 4.53142 21.1935 7.36743 21.1935H17.4058C20.2418 21.1935 22.5484 18.7877 22.5484 15.8177V7.40803C22.5484 5.98157 22.0088 4.61899 21.0435 3.60877Z" fill="black"/>
</svg>
