<svg width="18" height="19" viewBox="0 0 18 19" fill="none" xmlns="http://www.w3.org/2000/svg">
<path d="M17.3711 11.6659C17.5469 11.7714 17.6172 11.9823 17.582 12.1581C17.1602 13.4237 16.5273 14.5487 15.6484 15.4979C15.5078 15.6385 15.2969 15.6737 15.1211 15.5682L13.6094 14.7245C12.9766 15.2518 12.2734 15.6737 11.5 15.955V17.6776C11.5 17.8534 11.3594 18.0292 11.1484 18.0995C9.91797 18.3456 8.61719 18.3807 7.31641 18.0995C7.14062 18.0292 7 17.8534 7 17.6776V15.955C6.19141 15.6737 5.48828 15.2518 4.85547 14.7245L3.34375 15.5682C3.16797 15.6737 2.95703 15.6385 2.81641 15.4979C1.97266 14.5487 1.30469 13.4237 0.917969 12.1581C0.847656 11.9823 0.917969 11.7714 1.09375 11.6659L2.60547 10.8221C2.46484 9.97839 2.46484 9.1698 2.60547 8.32605L1.09375 7.4823C0.917969 7.37683 0.847656 7.16589 0.917969 6.99011C1.30469 5.72449 1.97266 4.59949 2.81641 3.65027C2.95703 3.50964 3.16797 3.47449 3.34375 3.57996L4.85547 4.45886C5.48828 3.89636 6.19141 3.47449 7 3.19324V1.47058C7 1.2948 7.10547 1.11902 7.31641 1.08386C8.54688 0.802612 9.84766 0.767456 11.1484 1.08386C11.3594 1.11902 11.5 1.2948 11.5 1.47058V3.19324C12.2734 3.47449 12.9766 3.89636 13.6094 4.42371L15.1211 3.57996C15.2969 3.47449 15.5078 3.50964 15.6484 3.65027C16.4922 4.59949 17.1602 5.72449 17.5469 6.99011C17.6172 7.16589 17.5469 7.37683 17.3711 7.4823L15.8594 8.32605C16.0352 9.1698 16.0352 9.97839 15.8594 10.8221L17.3711 11.6659ZM9.25 12.369C10.7969 12.369 12.0625 11.1385 12.0625 9.55652C12.0625 8.00964 10.7969 6.74402 9.25 6.74402C7.66797 6.74402 6.4375 8.00964 6.4375 9.55652C6.4375 11.1385 7.66797 12.369 9.25 12.369Z" fill="black"/>
</svg>
