<svg width="167" height="581" viewBox="0 0 167 581" fill="none" xmlns="http://www.w3.org/2000/svg">
<mask id="mask0_1_486" style="mask-type:alpha" maskUnits="userSpaceOnUse" x="0" y="0" width="167" height="581">
<rect y="0.706543" width="167" height="580" rx="20" fill="#292929"/>
</mask>
<g mask="url(#mask0_1_486)">
<path d="M61.0369 379.937C75.437 383.941 82.3132 400.134 85.6478 412.969C86.5377 416.872 87.5814 420.886 88.325 424.885C90.4223 435.261 92.7273 445.855 97.9119 454.612C101.767 461.113 107.096 466.28 112.245 471.281C117.032 475.952 122.001 480.788 125.76 486.711C133.685 498.785 136.318 514.296 138.954 529.234C141.916 546.951 144.794 563.726 155.606 575.527C159.658 579.901 164.647 583.226 169.362 586.59C173.762 589.521 178.223 592.767 182.18 596.562C190.859 605.285 195.304 620.522 187.673 631.141" stroke="#64C8B0" stroke-width="8"/>
<path d="M12.3691 496.698C15.6246 494.43 19.4491 495.944 22.0959 497.585C22.878 498.109 23.706 498.622 24.4769 499.195C26.5076 500.646 28.6109 502.093 30.9458 502.606C32.6803 502.987 34.4709 502.817 36.2023 502.656C37.8155 502.509 39.4878 502.355 41.1129 502.65C44.4737 503.196 47.418 505.47 50.2721 507.638C53.627 510.244 56.8169 512.696 60.6592 512.592C62.0914 512.544 63.5272 512.111 64.9195 511.742C66.1856 511.359 67.5131 511.021 68.836 510.888C71.8009 510.669 75.0314 512.515 75.3316 516.034" stroke="#64C8B0" stroke-width="8"/>
</g>
</svg>
