<svg width="27" height="23" viewBox="0 0 27 23" fill="none" xmlns="http://www.w3.org/2000/svg">
<path d="M8.6277 22.8139C18.4811 22.8139 23.8713 14.2884 23.8713 6.90802C23.8713 6.66944 23.8713 6.42746 23.8615 6.18889C24.9109 5.39562 25.8166 4.4135 26.5362 3.28854C25.5559 3.73987 24.5171 4.03733 23.4535 4.17126C24.5739 3.47197 25.413 2.37169 25.8149 1.07494C24.7623 1.72611 23.6102 2.18323 22.4091 2.42628C21.6016 1.52827 20.5331 0.933362 19.369 0.733711C18.2049 0.534061 17.0103 0.740807 15.9702 1.32193C14.93 1.90305 14.1024 2.82611 13.6155 3.94813C13.1286 5.07015 13.0096 6.32851 13.277 7.5283C11.1469 7.41677 9.06312 6.83895 7.1607 5.8323C5.25827 4.82566 3.57973 3.41268 2.23392 1.685C1.55071 2.9172 1.34221 4.37473 1.65076 5.76162C1.95931 7.14852 2.76177 8.3608 3.8952 9.15229C3.04586 9.12216 2.21519 8.884 1.4702 8.45703V8.53371C1.47166 9.82452 1.89989 11.0752 2.68249 12.0744C3.46509 13.0736 4.55407 13.7599 5.76535 14.0175C5.30559 14.1497 4.83065 14.2156 4.35376 14.2134C4.01756 14.2145 3.68204 14.182 3.35177 14.1163C3.69413 15.2274 4.36073 16.199 5.25823 16.8948C6.15574 17.5905 7.23918 17.9758 8.35681 17.9965C6.45818 19.5537 4.11289 20.3982 1.69866 20.3941C1.27326 20.396 0.848154 20.3704 0.425781 20.3174C2.8761 21.9487 5.72178 22.8149 8.6277 22.8139Z" fill="#7A5503"/>
</svg>
