<svg width="20" height="17" viewBox="0 0 20 17" fill="none" xmlns="http://www.w3.org/2000/svg">
<path d="M6.21292 16.6668C13.4774 16.6668 17.4513 10.3813 17.4513 4.94012C17.4513 4.76423 17.4513 4.58583 17.4441 4.40994C18.2178 3.8251 18.8855 3.10103 19.416 2.27165C18.6933 2.60439 17.9275 2.82369 17.1433 2.92243C17.9693 2.40688 18.5879 1.5957 18.8842 0.639658C18.1082 1.11974 17.2588 1.45675 16.3733 1.63594C15.778 0.973875 14.9902 0.535278 14.132 0.388085C13.2738 0.240892 12.393 0.393316 11.6262 0.821749C10.8593 1.25018 10.2492 1.93071 9.89021 2.75793C9.53125 3.58514 9.44353 4.51288 9.64062 5.39743C8.07024 5.3152 6.53394 4.8892 5.13136 4.14705C3.72879 3.40489 2.49128 2.36316 1.49908 1.08943C0.995378 1.99787 0.841659 3.07244 1.06914 4.09494C1.29661 5.11743 1.88823 6.01119 2.72386 6.59473C2.09768 6.57251 1.48527 6.39693 0.936016 6.08214V6.13867C0.937095 7.09033 1.25281 8.01241 1.82979 8.74905C2.40676 9.4857 3.20962 9.99172 4.10264 10.1816C3.76368 10.2791 3.41353 10.3277 3.06194 10.3261C2.81407 10.3268 2.56671 10.3029 2.32322 10.2545C2.57562 11.0737 3.06708 11.7899 3.72877 12.3029C4.39045 12.8159 5.18922 13.0999 6.0132 13.1151C4.61343 14.2632 2.88436 14.8858 1.10445 14.8828C0.790823 14.8842 0.477412 14.8653 0.166016 14.8263C1.97253 16.0289 4.07051 16.6675 6.21292 16.6668Z" fill="white"/>
</svg>
