<svg width="23" height="24" viewBox="0 0 23 24" fill="none" xmlns="http://www.w3.org/2000/svg">
<path fill-rule="evenodd" clip-rule="evenodd" d="M11.387 2.58528C6.02707 2.58528 1.68196 6.93039 1.68196 12.2904C1.68196 17.6503 6.02707 21.9954 11.387 21.9954C16.747 21.9954 21.0921 17.6503 21.0921 12.2904C21.0921 6.93039 16.747 2.58528 11.387 2.58528ZM0.0644531 12.2904C0.0644531 6.03707 5.13374 0.967773 11.387 0.967773C17.6403 0.967773 22.7096 6.03707 22.7096 12.2904C22.7096 18.5436 17.6403 23.6129 11.387 23.6129C5.13374 23.6129 0.0644531 18.5436 0.0644531 12.2904Z" fill="black"/>
<path fill-rule="evenodd" clip-rule="evenodd" d="M11.387 0.967773C11.6305 0.967773 11.8609 1.07741 12.0145 1.26627C14.3897 4.18716 15.8378 7.74432 16.1833 11.4816H21.9009C22.3475 11.4816 22.7096 11.8437 22.7096 12.2904C22.7096 12.737 22.3475 13.0991 21.9009 13.0991H16.1833C15.8378 16.8364 14.3897 20.3936 12.0145 23.3144C11.8609 23.5033 11.6305 23.6129 11.387 23.6129C11.1436 23.6129 10.9131 23.5033 10.7596 23.3144C8.38433 20.3936 6.93626 16.8364 6.59081 13.0991H0.873209C0.426545 13.0991 0.0644531 12.737 0.0644531 12.2904C0.0644531 11.8437 0.426545 11.4816 0.873209 11.4816H6.59081C6.93626 7.74432 8.38433 4.18716 10.7596 1.26627C10.9131 1.07741 11.1436 0.967773 11.387 0.967773ZM8.21587 13.0991C8.5215 16.1209 9.61566 19.0089 11.387 21.4736C13.1584 19.0089 14.2526 16.1209 14.5582 13.0991H8.21587ZM14.5582 11.4816H8.21587C8.5215 8.45977 9.61566 5.57179 11.387 3.10714C13.1584 5.57179 14.2526 8.45977 14.5582 11.4816Z" fill="black"/>
</svg>
