<svg width="23" height="17" viewBox="0 0 23 17" fill="none" xmlns="http://www.w3.org/2000/svg">
<path d="M11.332 0.824219H11.4553C12.5935 0.828443 18.3609 0.870683 19.916 1.2959C20.3861 1.42567 20.8144 1.67862 21.1583 2.02947C21.5021 2.38033 21.7494 2.81679 21.8754 3.29525C22.0152 3.83029 22.1135 4.53851 22.18 5.26926L22.1938 5.41569L22.2243 5.78177L22.2354 5.9282C22.3254 7.21511 22.3365 8.42036 22.3379 8.68365V8.78925C22.3365 9.0624 22.324 10.3493 22.2243 11.6897L22.2132 11.8376L22.2008 11.984C22.1315 12.7894 22.0291 13.5891 21.8754 14.1777C21.7498 14.6563 21.5026 15.093 21.1587 15.4439C20.8148 15.7948 20.3863 16.0476 19.916 16.177C18.3097 16.6163 12.2044 16.6473 11.3583 16.6487H11.1617C10.7338 16.6487 8.96415 16.6402 7.10862 16.5755L6.87321 16.567L6.75274 16.5614L6.51595 16.5515L6.27916 16.5417C4.74212 16.4727 3.27846 16.3615 2.6041 16.1756C2.13397 16.0463 1.7055 15.7937 1.36162 15.4431C1.01773 15.0924 0.770506 14.656 0.644708 14.1777C0.491003 13.5905 0.388533 12.7894 0.319297 11.984L0.308219 11.8362L0.297141 11.6897C0.228802 10.7357 0.190933 9.7796 0.183594 8.82304L0.183594 8.64986C0.186363 8.34714 0.197441 7.301 0.272216 6.14644L0.281909 6.00142L0.286064 5.9282L0.297141 5.78177L0.327605 5.41569L0.341453 5.26926C0.40792 4.53851 0.506235 3.82888 0.646093 3.29525C0.771679 2.8166 1.01881 2.37993 1.36271 2.02902C1.70661 1.6781 2.13519 1.42528 2.60548 1.2959C3.27984 1.11286 4.7435 1.00022 6.28055 0.929818L6.51595 0.919962L6.75413 0.911515L6.87321 0.907291L7.11 0.897435C8.42786 0.854314 9.74625 0.830376 11.0648 0.825627H11.332V0.824219ZM9.04585 5.34389V12.1276L14.8022 8.73716L9.04585 5.34389Z" fill="#7A5503"/>
</svg>
