<svg width="17" height="13" viewBox="0 0 17 13" fill="none" xmlns="http://www.w3.org/2000/svg">
<path d="M8.55152 0.666504H8.64238C9.48156 0.669618 13.7336 0.70076 14.8801 1.01425C15.2266 1.10993 15.5425 1.29642 15.796 1.55508C16.0495 1.81375 16.2318 2.13554 16.3246 2.48829C16.4277 2.88274 16.5002 3.40489 16.5492 3.94363L16.5594 4.05159L16.5819 4.32148L16.5901 4.42944C16.6564 5.37822 16.6646 6.26679 16.6656 6.46091V6.53876C16.6646 6.74015 16.6554 7.68892 16.5819 8.67715L16.5737 8.78615L16.5645 8.8941C16.5135 9.48787 16.4379 10.0775 16.3246 10.5114C16.232 10.8643 16.0498 11.1862 15.7963 11.4449C15.5428 11.7036 15.2268 11.89 14.8801 11.9854C13.6958 12.3093 9.19468 12.3321 8.57092 12.3332H8.42595C8.11049 12.3332 6.80578 12.3269 5.43778 12.2792L5.26423 12.273L5.17541 12.2688L5.00084 12.2615L4.82626 12.2543C3.69307 12.2034 2.61398 12.1214 2.1168 11.9844C1.7702 11.8891 1.45431 11.7028 1.20078 11.4443C0.947247 11.1858 0.764979 10.8641 0.672234 10.5114C0.558915 10.0785 0.483368 9.48787 0.432323 8.8941L0.424156 8.78511L0.415989 8.67715C0.365605 7.97377 0.337686 7.2689 0.332275 6.56368L0.332275 6.436C0.334317 6.21282 0.342484 5.44154 0.397613 4.59034L0.404759 4.48342L0.407822 4.42944L0.415989 4.32148L0.438449 4.05159L0.448658 3.94363C0.497661 3.40489 0.570144 2.88171 0.673255 2.48829C0.765844 2.1354 0.948042 1.81346 1.20158 1.55475C1.45512 1.29603 1.7711 1.10964 2.11782 1.01425C2.615 0.879305 3.69409 0.79626 4.82729 0.744358L5.00084 0.737091L5.17643 0.730863L5.26423 0.727749L5.4388 0.720483C6.4104 0.688692 7.38239 0.671043 8.35448 0.667542H8.55152V0.666504ZM6.86602 3.99865V8.99999L11.1099 6.50036L6.86602 3.99865Z" fill="white"/>
</svg>
